<?xml version="1.0" encoding="utf-8"?>
<!-- Generator: Adobe Illustrator 18.0.0, SVG Export Plug-In . SVG Version: 6.00 Build 0)  -->
<!DOCTYPE svg PUBLIC "-//W3C//DTD SVG 1.1//EN" "http://www.w3.org/Graphics/SVG/1.1/DTD/svg11.dtd">
<svg version="1.1" id="图层_1" xmlns="http://www.w3.org/2000/svg" xmlns:xlink="http://www.w3.org/1999/xlink" x="0px" y="0px"
	 viewBox="0 0 49.5 70.5" style="enable-background:new 0 0 49.5 70.5;" xml:space="preserve">
<path d="M29.9,34.3c3-1.7,5.1-4.9,5.1-8.6c0-5.4-4.4-9.9-9.9-9.9c-5.4,0-9.9,4.4-9.9,9.9c0,3.7,2,6.9,5.1,8.6
	c-6.8,2.1-11.7,8.3-11.7,15.8h2.3c0-7.8,6.4-14.2,14.2-14.2c7.8,0,14.2,6.4,14.2,14.2h2.3C41.5,42.6,36.6,36.4,29.9,34.3z
	 M17.5,25.7c0-4.2,3.4-7.6,7.6-7.6c4.2,0,7.6,3.4,7.6,7.6c0,4.2-3.4,7.6-7.6,7.6C20.9,33.2,17.5,29.9,17.5,25.7z"/>
</svg>
