<?xml version="1.0" encoding="utf-8"?>
<!-- Generator: Adobe Illustrator 18.0.0, SVG Export Plug-In . SVG Version: 6.00 Build 0)  -->
<!DOCTYPE svg PUBLIC "-//W3C//DTD SVG 1.1//EN" "http://www.w3.org/Graphics/SVG/1.1/DTD/svg11.dtd">
<svg version="1.1" id="图层_1" xmlns="http://www.w3.org/2000/svg" xmlns:xlink="http://www.w3.org/1999/xlink" x="0px" y="0px"
	 viewBox="268 142.9 56 57" style="enable-background:new 268 142.9 56 57;" xml:space="preserve">
<g>
	<path d="M296.4,175.8c3-1.7,5.1-4.9,5.1-8.6c0-5.4-4.4-9.9-9.9-9.9c-5.4,0-9.9,4.4-9.9,9.9c0,3.7,2,6.9,5.1,8.6
		c-6.8,2.1-11.7,8.3-11.7,15.8h2.3c0-7.8,6.4-14.2,14.2-14.2c7.8,0,14.2,6.4,14.2,14.2h2.3C308.1,184.1,303.2,177.8,296.4,175.8z
		 M284.1,167.2c0-4.2,3.4-7.6,7.6-7.6s7.6,3.4,7.6,7.6s-3.4,7.6-7.6,7.6C287.5,174.7,284.1,171.3,284.1,167.2z"/>
	<path d="M305.3,175c1.9-2.1,2.9-5.2,2.7-8.5c-0.4-4.3-2.9-7.7-6.9-9.4l-0.9,2.1c3.2,1.4,5.2,4.1,5.5,7.5c0.3,3.1-1,6.2-3.1,7.6
		l-1.8,1.2l2,0.8c6.2,2.6,10.4,8.8,10.3,15.3h2.3C315.5,185,311.4,178.3,305.3,175z"/>
</g>
</svg>
