<?xml version="1.0" encoding="utf-8"?>
<!-- Generator: Adobe Illustrator 18.0.0, SVG Export Plug-In . SVG Version: 6.00 Build 0)  -->
<!DOCTYPE svg PUBLIC "-//W3C//DTD SVG 1.1//EN" "http://www.w3.org/Graphics/SVG/1.1/DTD/svg11.dtd">
<svg version="1.1" id="图层_1" xmlns="http://www.w3.org/2000/svg" xmlns:xlink="http://www.w3.org/1999/xlink" x="0px" y="0px"
	 viewBox="0 0 13 14" enable-background="new 0 0 13 14" xml:space="preserve">
<path d="M7.5,10.5V5c0-0.6,1-0.6,1,0v5.5C8.5,11.1,7.5,11.1,7.5,10.5L7.5,10.5L7.5,10.5z M4.5,10.5V5c0-0.6,1-0.6,1,0v5.5
	C5.5,11.1,4.5,11.1,4.5,10.5L4.5,10.5L4.5,10.5z M12.5,2h-2l0-0.5C10.5,0.7,9.8,0,9,0H4C3.1,0,2.5,0.7,2.5,1.5l0,0.5h-2
	c-0.6,0-0.6,1,0,1h12C13.1,3,13.1,2,12.5,2L12.5,2L12.5,2z M3.5,1.5C3.5,1.2,3.7,1,4,1h5c0.3,0,0.5,0.2,0.5,0.5l0,0.5h-6L3.5,1.5
	L3.5,1.5z M10,14H3c-0.8,0-1.5-0.7-1.5-1.5V5c0-0.3,0.2-0.5,0.5-0.5S2.5,4.7,2.5,5v7.5C2.5,12.8,2.7,13,3,13h7
	c0.3,0,0.5-0.2,0.5-0.5V5c0-0.7,1-0.7,1,0v7.5C11.5,13.3,10.8,14,10,14L10,14z"/>
</svg>
