<?xml version="1.0" encoding="utf-8"?>
<!-- Generator: Adobe Illustrator 18.0.0, SVG Export Plug-In . SVG Version: 6.00 Build 0)  -->
<!DOCTYPE svg PUBLIC "-//W3C//DTD SVG 1.1//EN" "http://www.w3.org/Graphics/SVG/1.1/DTD/svg11.dtd">
<svg version="1.1" id="图层_1" xmlns="http://www.w3.org/2000/svg" xmlns:xlink="http://www.w3.org/1999/xlink" x="0px" y="0px"
	 viewBox="0 0 960 560" enable-background="new 0 0 960 560" xml:space="preserve">
<path d="M695.7,106.9H541.4l50-68.3c7.6-10.4,5.4-25-5.1-32.6c-10.4-7.7-25-5.4-32.7,5.1l-70.2,95.9h-66.6L346.7,11
	C339.1,0.6,324.5-1.7,314.1,6c-10.4,7.6-12.7,22.2-5.1,32.6l50,68.3H204.8c-27.9,0-50.5,22.6-50.5,50.5v347.5
	c0,27.9,22.6,50.5,50.5,50.5h490.9c27.9,0,50.5-22.6,50.5-50.5V157.4C746.2,129.5,723.6,106.9,695.7,106.9z M532,344.8l-104,69.3
	c-10.9,7.3-25.5-0.6-25.5-13.7V261.9c0-13.1,14.6-20.9,25.5-13.7l104,69.3C541.8,324,541.8,338.3,532,344.8z"/>
</svg>
