<?xml version="1.0" encoding="utf-8"?>
<!-- Generator: Adobe Illustrator 18.0.0, SVG Export Plug-In . SVG Version: 6.00 Build 0)  -->
<!DOCTYPE svg PUBLIC "-//W3C//DTD SVG 1.1//EN" "http://www.w3.org/Graphics/SVG/1.1/DTD/svg11.dtd">
<svg version="1.1" id="图层_1" xmlns="http://www.w3.org/2000/svg" xmlns:xlink="http://www.w3.org/1999/xlink" x="0px" y="0px"
	 viewBox="0 0 17 17" enable-background="new 0 0 17 17" xml:space="preserve">
<path d="M9,8V5c0,0,0.4,0,0,0S8,5,8,5v3H5c0,0,0-0.4,0,0c0,0.4,0,1,0,1h3v3h1c0,0,0,0.4,0,0V9h3c0,0,0,0.4,0,0c0-0.4,0-1,0-1l0,0H9z
	 M8.5,0C3.8,0,0,3.8,0,8.5C0,13.2,3.8,17,8.5,17c4.7,0,8.5-3.8,8.5-8.5C17,3.8,13.2,0,8.5,0L8.5,0L8.5,0z M8.5,15.9
	c-4.1,0-7.4-3.3-7.4-7.4c0-4.1,3.3-7.4,7.4-7.4s7.4,3.3,7.4,7.4C15.9,12.6,12.6,15.9,8.5,15.9L8.5,15.9L8.5,15.9z"/>
</svg>
