<?xml version="1.0" encoding="utf-8"?>
<!-- Generator: Adobe Illustrator 18.0.0, SVG Export Plug-In . SVG Version: 6.00 Build 0)  -->
<!DOCTYPE svg PUBLIC "-//W3C//DTD SVG 1.1//EN" "http://www.w3.org/Graphics/SVG/1.1/DTD/svg11.dtd">
<svg version="1.1" id="图层_1" xmlns="http://www.w3.org/2000/svg" xmlns:xlink="http://www.w3.org/1999/xlink" x="0px" y="0px"
	 viewBox="0 0 14 14" enable-background="new 0 0 14 14" xml:space="preserve">
<path d="M13.8,0.2C13.9,0.3,14,0.4,14,0.6c0,0.1,0,0.2-0.1,0.3L7.1,7.6C7,7.7,6.9,7.7,6.7,7.7c-0.1,0-0.3-0.1-0.4-0.2
	C6.3,7.4,6.2,7.3,6.2,7.1c0-0.1,0-0.2,0.1-0.3l6.8-6.7C13.2,0,13.3,0,13.4,0C13.6,0,13.7,0.1,13.8,0.2L13.8,0.2z M12,6v7
	c0.1-0.4,0.1-0.1,0,0s0.1,0,0,0H1c0,0,0,0.2,0,0.2c0,0-0.1,0-0.1-0.1C0.9,13.1,1,13,1,13c0,0-0.2,0.1,0,0V2c0-0.1-0.2,0-0.1-0.1
	C0.9,1.9,0.9,2,1,2h7V1L1.1,1C0.8,1,0.5,1.1,0.3,1.4C0.1,1.6,0,1.8,0,2.1v10.8c0,0.1,0,0.3,0.1,0.4c0.1,0.1,0.1,0.2,0.2,0.3
	c0.1,0.1,0.2,0.2,0.3,0.2C0.8,14,0.9,14,1.1,14H12c0.3,0,0.6-0.1,0.8-0.3S13,13.3,13,13V6H12L12,6z"/>
</svg>
