<?xml version="1.0" encoding="utf-8"?>
<!-- Generator: Adobe Illustrator 18.0.0, SVG Export Plug-In . SVG Version: 6.00 Build 0)  -->
<!DOCTYPE svg PUBLIC "-//W3C//DTD SVG 1.1//EN" "http://www.w3.org/Graphics/SVG/1.1/DTD/svg11.dtd">
<svg version="1.1" id="图层_1" xmlns="http://www.w3.org/2000/svg" xmlns:xlink="http://www.w3.org/1999/xlink" x="0px" y="0px"
	 viewBox="0 0 960 560" enable-background="new 0 0 960 560" xml:space="preserve">
<path d="M521.3,525.2c0,10.1-8.2,18.3-18.3,18.3H273.8c-72.6,0-131.6-59-131.6-131.6V139.4c0-72.6,59-131.6,131.6-131.6h348.1
	c72.6,0,131.6,59,131.6,131.6v98.8c0,10.1-8.2,18.3-18.3,18.3c-10.1,0-18.3-8.2-18.3-18.3v-98.8c0-52.4-42.6-95-95-95H273.8
	c-52.4,0-95,42.6-95,95v272.5c0,52.4,42.6,95,95,95H503C513.1,506.9,521.3,515.1,521.3,525.2z M794.1,424.7h-78.5v-78.5
	c0-10.1-8.2-18.3-18.3-18.3c-10.1,0-18.3,8.2-18.3,18.3v78.5h-78.5c-10.1,0-18.3,8.2-18.3,18.3c0,10.1,8.2,18.3,18.3,18.3h78.5v78.5
	c0,10.1,8.2,18.3,18.3,18.3c10.1,0,18.3-8.2,18.3-18.3v-78.5h78.5c10.1,0,18.3-8.2,18.3-18.3C812.4,432.8,804.2,424.7,794.1,424.7z
	 M559,249.1l-174.1-109c-17.1-10.7-31-2.9-31,17.2v222.5c0,20.1,14,27.8,31,17.2L559,288C576.1,277.3,576.1,259.8,559,249.1z"/>
</svg>
