<?xml version="1.0" encoding="utf-8"?>
<!-- Generator: Adobe Illustrator 18.0.0, SVG Export Plug-In . SVG Version: 6.00 Build 0)  -->
<!DOCTYPE svg PUBLIC "-//W3C//DTD SVG 1.1//EN" "http://www.w3.org/Graphics/SVG/1.1/DTD/svg11.dtd">
<svg version="1.1" id="图层_1" xmlns="http://www.w3.org/2000/svg" xmlns:xlink="http://www.w3.org/1999/xlink" x="0px" y="0px"
	 viewBox="0 0 960 560" enable-background="new 0 0 960 560" xml:space="preserve">
<path d="M616.6,279.4c0-64.6-52.5-117.1-117.1-117.1s-117.1,52.5-117.1,117.1S435,396.5,499.6,396.5S616.6,344,616.6,279.4z
	 M403.6,279.4c0-52.9,43-96,95.9-96c52.9,0,96,43,96,96c0,52.9-43,95.9-96,95.9C446.7,375.4,403.6,332.3,403.6,279.4z M796.7,325.2
	L687.3,514.6c-16.1,27.9-46.2,45.3-78.4,45.3H350.1c-1.5,0-2.9-0.2-4.3-0.4c-0.2,0-0.3-0.1-0.5-0.2c-1.2-0.3-2.4-0.6-3.6-1.1
	c-0.4-0.2-0.8-0.5-1.2-0.7c-0.9-0.4-1.7-0.9-2.5-1.4c-0.4-0.3-0.8-0.7-1.2-1c-0.7-0.6-1.4-1.2-2.1-1.9c-0.1-0.1-0.3-0.2-0.4-0.4
	c-0.3-0.3-0.5-0.7-0.7-1c-0.5-0.6-0.9-1.2-1.4-1.9c-0.4-0.6-0.6-1.1-0.9-1.7c-0.3-0.6-0.6-1.3-0.9-1.9c-0.2-0.7-0.4-1.3-0.6-2
	c-0.2-0.6-0.3-1.3-0.5-2c-0.1-0.7-0.2-1.5-0.2-2.2c0-0.4-0.1-0.9-0.1-1.3c0-0.2,0.1-0.4,0.1-0.6c0-0.8,0.1-1.5,0.2-2.2
	c0.1-0.6,0.2-1.3,0.3-1.9c0.2-0.7,0.4-1.3,0.6-2c0.2-0.6,0.4-1.3,0.7-1.9c0.3-0.6,0.6-1.2,1-1.8c0.4-0.6,0.7-1.2,1.1-1.8
	c0.4-0.5,0.8-1,1.2-1.5c0.5-0.6,1-1.2,1.6-1.7c0.1-0.1,0.2-0.3,0.4-0.4l81.1-72.2c8.7-7.8,22.1-7,29.8,1.7c7.8,8.7,7,22.1-1.7,29.8
	l-39.7,35.3h203.3c17.2,0,33.3-9.3,41.9-24.2l109.3-189.4c8.6-14.9,8.6-33.4,0-48.3L650.8,66.4c-8.6-14.9-24.6-24.2-41.9-24.2H390.2
	c-17.2,0-33.3,9.3-41.9,24.2L239,255.8c-8.6,14.9-8.6,33.4,0,48.3l54.8,94.9c5.8,10.1,2.4,23-7.7,28.8c-10.1,5.8-23,2.4-28.8-7.7
	l-54.8-94.9c-16.1-27.9-16.1-62.6,0-90.6L311.8,45.3C327.9,17.4,358,0,390.2,0h218.7c32.3,0,62.3,17.4,78.4,45.3l109.3,189.4
	C812.8,262.6,812.8,297.3,796.7,325.2z"/>
</svg>
